# xmcd
#
# Track frame offsets:
#	150
#	23240
#	42089
#	65212
#	84230
#	102551
#	120686
#	140000
#	155477
#	173833
#	190378
#	209536
#	220977
#	239910
#
# Disc length: 3448 seconds
# Revision: 0
# Processed by: cddbd v1.5.2PL0 Copyright (c) Steve Scherf et al.
# Submitted via: dBpowerAMP V12.0
#
DISCID=d80d760e
DTITLE=Peter Mayer - Third Street
DYEAR=2014
DGENRE=Singer/Songwriter
TTITLE0=When You Dream
TTITLE1=Union Depot
TTITLE2=Hawk and Whale
TTITLE3=Winds of October
TTITLE4=Dr. Seuss
TTITLE5=She Sleeps
TTITLE6=Tomorrow's Train
TTITLE7=It's Not Far
TTITLE8=Under the Moon
TTITLE9=Hot Pickles
TTITLE10=Third Street
TTITLE11=Head of the Shed
TTITLE12=Human You
TTITLE13=The Morning
EXTD=
EXTT0=
EXTT1=
EXTT2=
EXTT3=
EXTT4=
EXTT5=
EXTT6=
EXTT7=
EXTT8=
EXTT9=
EXTT10=
EXTT11=
EXTT12=
EXTT13=
PLAYORDER=
